<svg width="44" height="44" viewBox="0 0 44 44" fill="none" xmlns="http://www.w3.org/2000/svg">
<rect width="44" height="44" rx="5" fill="#020618"/>
<g clip-path="url(#clip0_3_5598)">
<path d="M30.3388 21.3312C30.338 20.5724 30.1224 19.8292 29.7168 19.1878C29.3113 18.5464 28.7323 18.0329 28.0471 17.7068V17.6073C28.0464 16.8691 27.8082 16.1507 27.3675 15.5585C26.9269 14.9662 26.3073 14.5315 25.6004 14.3188C24.8936 14.106 24.137 14.1264 23.4427 14.377C22.7483 14.6276 22.1531 15.095 21.745 15.7102C21.337 15.095 20.7417 14.6276 20.0474 14.377C19.353 14.1264 18.5964 14.106 17.8896 14.3188C17.1827 14.5315 16.5631 14.9662 16.1225 15.5585C15.6819 16.1507 15.4436 16.8691 15.4429 17.6073V17.7068C14.7571 18.032 14.1776 18.5452 13.7719 19.1866C13.3661 19.8281 13.1507 20.5715 13.1507 21.3305C13.1507 22.0895 13.3661 22.833 13.7719 23.4744C14.1776 24.1159 14.7571 24.629 15.4429 24.9542V25.0552C15.4436 25.7934 15.6819 26.5118 16.1225 27.104C16.5631 27.6963 17.1827 28.1309 17.8896 28.3437C18.5964 28.5565 19.353 28.5361 20.0474 28.2855C20.7417 28.0349 21.337 27.5674 21.745 26.9523C22.1531 27.5674 22.7483 28.0349 23.4427 28.2855C24.137 28.5361 24.8936 28.5565 25.6004 28.3437C26.3073 28.1309 26.9269 27.6963 27.3675 27.104C27.8082 26.5118 28.0464 25.7934 28.0471 25.0552V24.9542C28.7322 24.6284 29.3111 24.1152 29.7167 23.474C30.1222 22.8328 30.3379 22.0899 30.3388 21.3312ZM18.8804 27.3469C18.3154 27.3468 17.7702 27.1379 17.3498 26.7604C16.9293 26.3829 16.6631 25.8633 16.6024 25.3015C16.7876 25.328 16.9745 25.3414 17.1617 25.3417H17.7346C17.8865 25.3417 18.0323 25.2813 18.1397 25.1738C18.2472 25.0664 18.3075 24.9207 18.3075 24.7687C18.3075 24.6168 18.2472 24.4711 18.1397 24.3636C18.0323 24.2562 17.8865 24.1958 17.7346 24.1958H17.1617C16.4853 24.1966 15.8305 23.9581 15.3131 23.5224C14.7958 23.0867 14.4493 22.482 14.335 21.8154C14.2206 21.1488 14.3459 20.4632 14.6885 19.8801C15.0312 19.2969 15.5691 18.8538 16.2071 18.6292C16.3187 18.5897 16.4153 18.5166 16.4837 18.4199C16.552 18.3232 16.5887 18.2077 16.5888 18.0892V17.6073C16.5888 16.9995 16.8302 16.4166 17.26 15.9868C17.6897 15.5571 18.2726 15.3156 18.8804 15.3156C19.4882 15.3156 20.0711 15.5571 20.5009 15.9868C20.9307 16.4166 21.1721 16.9995 21.1721 17.6073V22.4957C20.543 21.9298 19.7266 21.6171 18.8804 21.6177C18.7285 21.6177 18.5828 21.6781 18.4753 21.7855C18.3679 21.8929 18.3075 22.0387 18.3075 22.1906C18.3075 22.3426 18.3679 22.4883 18.4753 22.5957C18.5828 22.7032 18.7285 22.7635 18.8804 22.7635C19.4882 22.7635 20.0711 23.005 20.5009 23.4347C20.9307 23.8645 21.1721 24.4474 21.1721 25.0552C21.1721 25.663 20.9307 26.2459 20.5009 26.6756C20.0711 27.1054 19.4882 27.3469 18.8804 27.3469ZM26.3283 24.1958H25.7554C25.6035 24.1958 25.4578 24.2562 25.3503 24.3636C25.2429 24.4711 25.1825 24.6168 25.1825 24.7687C25.1825 24.9207 25.2429 25.0664 25.3503 25.1738C25.4578 25.2813 25.6035 25.3417 25.7554 25.3417H26.3283C26.5155 25.3414 26.7024 25.328 26.8877 25.3015C26.8401 25.7417 26.666 26.1587 26.3864 26.5021C26.1069 26.8454 25.7339 27.1004 25.3125 27.2363C24.8911 27.3722 24.4393 27.383 24.0119 27.2676C23.5844 27.1522 23.1996 26.9154 22.9038 26.5859C22.6081 26.2565 22.4141 25.8483 22.3454 25.4109C22.2767 24.9736 22.3361 24.5256 22.5165 24.1213C22.697 23.717 22.9907 23.3736 23.3621 23.1326C23.7335 22.8917 24.1668 22.7635 24.6096 22.7635C24.7615 22.7635 24.9073 22.7032 25.0147 22.5957C25.1222 22.4883 25.1825 22.3426 25.1825 22.1906C25.1825 22.0387 25.1222 21.8929 25.0147 21.7855C24.9073 21.6781 24.7615 21.6177 24.6096 21.6177C23.7634 21.6171 22.9471 21.9298 22.3179 22.4957V17.6073C22.3179 16.9995 22.5594 16.4166 22.9891 15.9868C23.4189 15.5571 24.0018 15.3156 24.6096 15.3156C25.2174 15.3156 25.8003 15.5571 26.2301 15.9868C26.6598 16.4166 26.9013 16.9995 26.9013 17.6073V18.0892C26.9013 18.2077 26.938 18.3232 27.0063 18.4199C27.0747 18.5166 27.1713 18.5897 27.283 18.6292C27.9209 18.8538 28.4589 19.2969 28.8015 19.8801C29.1441 20.4632 29.2694 21.1488 29.1551 21.8154C29.0407 22.482 28.6942 23.0867 28.1769 23.5224C27.6595 23.9581 27.0047 24.1966 26.3283 24.1958ZM27.4742 20.4719C27.4742 20.6238 27.4138 20.7695 27.3064 20.877C27.1989 20.9844 27.0532 21.0448 26.9013 21.0448H26.6148C25.931 21.0448 25.2753 20.7732 24.7918 20.2897C24.3083 19.8062 24.0367 19.1504 24.0367 18.4667V18.1802C24.0367 18.0282 24.097 17.8825 24.2045 17.7751C24.3119 17.6676 24.4577 17.6073 24.6096 17.6073C24.7615 17.6073 24.9073 17.6676 25.0147 17.7751C25.1222 17.8825 25.1825 18.0282 25.1825 18.1802V18.4667C25.1825 18.8465 25.3334 19.2108 25.602 19.4794C25.8706 19.748 26.2349 19.8989 26.6148 19.8989H26.9013C27.0532 19.8989 27.1989 19.9593 27.3064 20.0667C27.4138 20.1742 27.4742 20.3199 27.4742 20.4719ZM16.8752 21.0448H16.5888C16.4368 21.0448 16.2911 20.9844 16.1837 20.877C16.0762 20.7695 16.0158 20.6238 16.0158 20.4719C16.0158 20.3199 16.0762 20.1742 16.1837 20.0667C16.2911 19.9593 16.4368 19.8989 16.5888 19.8989H16.8752C17.2551 19.8989 17.6194 19.748 17.888 19.4794C18.1566 19.2108 18.3075 18.8465 18.3075 18.4667V18.1802C18.3075 18.0282 18.3679 17.8825 18.4753 17.7751C18.5828 17.6676 18.7285 17.6073 18.8804 17.6073C19.0324 17.6073 19.1781 17.6676 19.2855 17.7751C19.393 17.8825 19.4533 18.0282 19.4533 18.1802V18.4667C19.4533 19.1504 19.1817 19.8062 18.6982 20.2897C18.2147 20.7732 17.559 21.0448 16.8752 21.0448Z" fill="#F8FAFC"/>
</g>
<defs>
<clipPath id="clip0_3_5598">
<rect width="18.3333" height="18.3333" fill="white" transform="translate(12.5783 12.4512)"/>
</clipPath>
</defs>
</svg>
